<svg width="136" height="36" viewBox="0 0 136 36" fill="none" xmlns="http://www.w3.org/2000/svg">
<path d="M12.0389 5.912C14.2149 6.36 15.8949 7.256 17.0789 8.6C18.2629 9.944 18.8549 11.544 18.8549 13.4V14.072H13.3829V13.4C13.3829 13.016 13.2709 12.648 13.0469 12.296C12.8549 11.912 12.5189 11.592 12.0389 11.336V15.656C16.9669 16.328 19.4309 18.68 19.4309 22.712V23C19.4309 25.144 18.7749 26.888 17.4629 28.232C16.1829 29.576 14.3749 30.392 12.0389 30.68V33.656H7.43088V30.536C6.11888 30.312 4.99888 29.944 4.07088 29.432C3.14288 28.888 2.37488 28.248 1.76688 27.512C1.19088 26.776 0.758875 25.96 0.470875 25.064C0.182875 24.136 0.0388751 23.192 0.0388751 22.232V21.272H5.51088V21.944C5.51088 22.68 5.65488 23.32 5.94288 23.864C6.23088 24.408 6.72688 24.84 7.43088 25.16V19.976C5.22288 19.592 3.47888 18.872 2.19888 17.816C0.950875 16.76 0.326875 15.224 0.326875 13.208V12.92C0.326875 11.832 0.518875 10.888 0.902875 10.088C1.28688 9.256 1.79888 8.552 2.43888 7.976C3.07888 7.368 3.83088 6.888 4.69488 6.536C5.55888 6.184 6.47088 5.928 7.43088 5.768V2.744H12.0389V5.912ZM13.9589 23.096C13.9589 22.616 13.8469 22.184 13.6229 21.8C13.3989 21.384 12.8709 21.048 12.0389 20.792V25.352C12.7749 25.128 13.2709 24.808 13.5269 24.392C13.8149 23.976 13.9589 23.544 13.9589 23.096ZM5.79888 12.92C5.79888 13.368 5.89488 13.752 6.08688 14.072C6.27888 14.36 6.72688 14.632 7.43088 14.888V11.096C6.85488 11.288 6.43888 11.56 6.18288 11.912C5.92688 12.232 5.79888 12.568 5.79888 12.92ZM34.0935 18.2C34.0935 17.112 34.4935 16.168 35.2935 15.368C36.0935 14.568 37.0375 14.168 38.1255 14.168C39.2135 14.168 40.1575 14.568 40.9575 15.368C41.7575 16.168 42.1575 17.112 42.1575 18.2C42.1575 19.288 41.7575 20.232 40.9575 21.032C40.1575 21.832 39.2135 22.232 38.1255 22.232C37.0375 22.232 36.0935 21.832 35.2935 21.032C34.4935 20.232 34.0935 19.288 34.0935 18.2ZM25.7415 14.456C25.7415 10.104 26.8295 6.728 29.0055 4.328C31.2135 1.928 34.2535 0.727998 38.1255 0.727998C41.9975 0.727998 45.0215 1.928 47.1975 4.328C49.4055 6.728 50.5095 10.104 50.5095 14.456V21.944C50.5095 26.424 49.4055 29.832 47.1975 32.168C45.0215 34.504 41.9975 35.672 38.1255 35.672C34.2535 35.672 31.2135 34.504 29.0055 32.168C26.8295 29.832 25.7415 26.424 25.7415 21.944V14.456ZM38.1255 29.912C39.2775 29.912 40.2375 29.736 41.0055 29.384C41.7735 29 42.3975 28.472 42.8775 27.8C43.3575 27.128 43.6935 26.328 43.8855 25.4C44.0775 24.472 44.1735 23.448 44.1735 22.328V14.072C44.1735 13.016 44.0615 12.024 43.8375 11.096C43.6135 10.168 43.2615 9.368 42.7815 8.696C42.3015 8.024 41.6775 7.496 40.9095 7.112C40.1415 6.696 39.2135 6.488 38.1255 6.488C37.0375 6.488 36.1095 6.696 35.3415 7.112C34.5735 7.496 33.9495 8.024 33.4695 8.696C32.9895 9.368 32.6375 10.168 32.4135 11.096C32.1895 12.024 32.0775 13.016 32.0775 14.072V22.328C32.0775 23.448 32.1735 24.472 32.3655 25.4C32.5575 26.328 32.8935 27.128 33.3735 27.8C33.8535 28.472 34.4775 29 35.2455 29.384C36.0135 29.736 36.9735 29.912 38.1255 29.912ZM71.0761 31.112C71.0761 31.752 70.9481 32.36 70.6921 32.936C70.4681 33.48 70.1481 33.96 69.7321 34.376C69.3161 34.76 68.8201 35.064 68.2441 35.288C67.7001 35.544 67.1241 35.672 66.5161 35.672C65.8761 35.672 65.2841 35.544 64.7401 35.288C64.1961 35.064 63.7161 34.76 63.3001 34.376C62.8841 33.96 62.5481 33.48 62.2921 32.936C62.0681 32.36 61.9561 31.752 61.9561 31.112C61.9561 30.472 62.0681 29.88 62.2921 29.336C62.5481 28.76 62.8841 28.28 63.3001 27.896C63.7161 27.48 64.1961 27.16 64.7401 26.936C65.2841 26.68 65.8761 26.552 66.5161 26.552C67.1241 26.552 67.7001 26.68 68.2441 26.936C68.8201 27.16 69.3161 27.48 69.7321 27.896C70.1481 28.28 70.4681 28.76 70.6921 29.336C70.9481 29.88 71.0761 30.472 71.0761 31.112ZM90.8748 18.2C90.8748 17.112 91.2748 16.168 92.0748 15.368C92.8748 14.568 93.8188 14.168 94.9068 14.168C95.9948 14.168 96.9388 14.568 97.7388 15.368C98.5388 16.168 98.9388 17.112 98.9388 18.2C98.9388 19.288 98.5388 20.232 97.7388 21.032C96.9388 21.832 95.9948 22.232 94.9068 22.232C93.8188 22.232 92.8748 21.832 92.0748 21.032C91.2748 20.232 90.8748 19.288 90.8748 18.2ZM82.5228 14.456C82.5228 10.104 83.6108 6.728 85.7868 4.328C87.9948 1.928 91.0348 0.727998 94.9068 0.727998C98.7788 0.727998 101.803 1.928 103.979 4.328C106.187 6.728 107.291 10.104 107.291 14.456V21.944C107.291 26.424 106.187 29.832 103.979 32.168C101.803 34.504 98.7788 35.672 94.9068 35.672C91.0348 35.672 87.9948 34.504 85.7868 32.168C83.6108 29.832 82.5228 26.424 82.5228 21.944V14.456ZM94.9068 29.912C96.0588 29.912 97.0188 29.736 97.7868 29.384C98.5548 29 99.1788 28.472 99.6588 27.8C100.139 27.128 100.475 26.328 100.667 25.4C100.859 24.472 100.955 23.448 100.955 22.328V14.072C100.955 13.016 100.843 12.024 100.619 11.096C100.395 10.168 100.043 9.368 99.5628 8.696C99.0828 8.024 98.4588 7.496 97.6908 7.112C96.9228 6.696 95.9948 6.488 94.9068 6.488C93.8188 6.488 92.8908 6.696 92.1228 7.112C91.3548 7.496 90.7308 8.024 90.2508 8.696C89.7708 9.368 89.4188 10.168 89.1948 11.096C88.9708 12.024 88.8588 13.016 88.8588 14.072V22.328C88.8588 23.448 88.9548 24.472 89.1468 25.4C89.3388 26.328 89.6748 27.128 90.1548 27.8C90.6348 28.472 91.2588 29 92.0268 29.384C92.7948 29.736 93.7548 29.912 94.9068 29.912ZM119.265 18.2C119.265 17.112 119.665 16.168 120.465 15.368C121.265 14.568 122.209 14.168 123.297 14.168C124.385 14.168 125.329 14.568 126.129 15.368C126.929 16.168 127.329 17.112 127.329 18.2C127.329 19.288 126.929 20.232 126.129 21.032C125.329 21.832 124.385 22.232 123.297 22.232C122.209 22.232 121.265 21.832 120.465 21.032C119.665 20.232 119.265 19.288 119.265 18.2ZM110.913 14.456C110.913 10.104 112.001 6.728 114.177 4.328C116.385 1.928 119.425 0.727998 123.297 0.727998C127.169 0.727998 130.193 1.928 132.369 4.328C134.577 6.728 135.681 10.104 135.681 14.456V21.944C135.681 26.424 134.577 29.832 132.369 32.168C130.193 34.504 127.169 35.672 123.297 35.672C119.425 35.672 116.385 34.504 114.177 32.168C112.001 29.832 110.913 26.424 110.913 21.944V14.456ZM123.297 29.912C124.449 29.912 125.409 29.736 126.177 29.384C126.945 29 127.569 28.472 128.049 27.8C128.529 27.128 128.865 26.328 129.057 25.4C129.249 24.472 129.345 23.448 129.345 22.328V14.072C129.345 13.016 129.233 12.024 129.009 11.096C128.785 10.168 128.433 9.368 127.953 8.696C127.473 8.024 126.849 7.496 126.081 7.112C125.313 6.696 124.385 6.488 123.297 6.488C122.209 6.488 121.281 6.696 120.513 7.112C119.745 7.496 119.121 8.024 118.641 8.696C118.161 9.368 117.809 10.168 117.585 11.096C117.361 12.024 117.249 13.016 117.249 14.072V22.328C117.249 23.448 117.345 24.472 117.537 25.4C117.729 26.328 118.065 27.128 118.545 27.8C119.025 28.472 119.649 29 120.417 29.384C121.185 29.736 122.145 29.912 123.297 29.912Z" fill="#26C2AE"/>
</svg>
